<?xml version="1.0" standalone="no"?>
<!DOCTYPE svg PUBLIC "-//W3C//DTD SVG 20010904//EN"
 "http://www.w3.org/TR/2001/REC-SVG-20010904/DTD/svg10.dtd">
<svg version="1.0" xmlns="http://www.w3.org/2000/svg"
 width="48px" height="48px" viewBox="0 0 167.000000 166.000000"
 preserveAspectRatio="xMidYMid meet">

<g transform="translate(0.000000,166.000000) scale(0.100000,-0.100000)"
fill="#e23e57" stroke="none">
<path d="M627 1276 c-120 -33 -164 -155 -102 -283 32 -64 240 -277 282 -288
33 -8 48 3 170 123 146 145 184 220 162 323 -25 115 -175 172 -286 108 -32
-18 -34 -18 -65 0 -46 26 -104 32 -161 17z m104 -52 c11 -14 10 -19 -10 -35
-13 -11 -32 -19 -43 -19 -23 0 -68 -46 -68 -70 0 -24 -24 -42 -45 -34 -28 11
-14 79 25 119 47 49 117 68 141 39z"/>
<path d="M286 1028 c-3 -13 -8 -55 -11 -95 -6 -65 -3 -79 25 -150 53 -134 68
-152 174 -217 117 -72 127 -83 133 -141 l6 -45 88 0 89 0 0 75 c0 90 -14 128
-70 189 -43 47 -109 76 -171 76 -21 0 -38 12 -71 50 -24 28 -57 60 -74 70 -30
19 -74 27 -74 14 0 -3 23 -38 51 -76 30 -42 43 -65 31 -59 -11 6 -30 27 -43
47 -13 21 -31 48 -39 60 -13 20 -13 27 -2 45 21 33 -2 179 -28 179 -5 0 -12
-10 -14 -22z"/>
<path d="M1322 1033 c-15 -29 -25 -150 -13 -158 6 -3 11 -13 11 -22 0 -22 -69
-122 -93 -135 -10 -5 5 22 32 60 28 38 51 73 51 76 0 3 -10 6 -23 6 -28 0 -69
-30 -126 -92 -31 -35 -51 -48 -70 -48 -62 0 -128 -29 -171 -76 -56 -61 -70
-99 -70 -189 l0 -75 90 0 90 0 0 29 c0 67 15 83 169 180 76 47 99 81 147 206
21 58 24 78 19 139 -8 91 -13 116 -25 116 -5 0 -13 -8 -18 -17z"/>
</g>
</svg>
